<svg width="24" height="24" viewBox="0 0 24 24" fill="none" xmlns="http://www.w3.org/2000/svg">
  <path d="M12 1.5C6.201 1.5 1.5 6.201 1.5 12c0 4.635 3.015 8.573 7.178 9.96.525.097.718-.228.718-.507 0-.25-.009-.913-.014-1.792-2.934.637-3.554-1.414-3.554-1.414-.478-1.214-1.167-1.538-1.167-1.538-.954-.652.072-.639.072-.639 1.056.074 1.612 1.084 1.612 1.084.938 1.606 2.462 1.142 3.062.873.096-.679.367-1.142.668-1.405-2.334-.265-4.787-1.167-4.787-5.195 0-1.148.41-2.087 1.084-2.823-.109-.266-.47-1.335.103-2.782 0 0 .883-.283 2.891 1.077A10.06 10.06 0 0112 7.135c.893.004 1.793.121 2.635.355 2.007-1.36 2.889-1.077 2.889-1.077.574 1.447.213 2.516.104 2.782.675.736 1.083 1.675 1.083 2.823 0 4.038-2.458 4.927-4.798 5.187.377.325.713.966.713 1.947 0 1.405-.013 2.537-.013 2.884 0 .282.19.608.722.505C19.988 20.565 22.5 16.63 22.5 12c0-5.799-4.701-10.5-10.5-10.5z" fill="currentColor"/>
</svg>
