<svg width="24" height="24" viewBox="0 0 24 24" fill="none" xmlns="http://www.w3.org/2000/svg">
  <path d="M12 0C5.374 0 0 5.373 0 12s5.374 12 12 12 12-5.373 12-12S18.626 0 12 0zm5.568 8.16c-.009.092-.009.184-.009.278 0 2.84-2.16 6.114-6.114 6.114-1.214 0-2.343-.356-3.297-.965.172.02.344.029.52.029 1.019 0 1.958-.346 2.703-.93-.951-.018-1.754-.646-2.031-1.51.133.025.269.039.409.039.198 0 .389-.026.571-.076-.994-.2-1.743-1.08-1.743-2.135v-.027c.293.163.628.261.983.272-.583-.389-.966-1.053-.966-1.806 0-.398.107-.771.294-1.092 1.071 1.314 2.67 2.179 4.473 2.27-.037-.159-.056-.325-.056-.495 0-1.198.973-2.171 2.171-2.171.625 0 1.19.264 1.586.687.495-.097.961-.277 1.381-.525-.162.507-.506.933-.954 1.202.44-.052.859-.169 1.248-.341-.291.436-.659.819-1.083 1.127z" fill="#1da1f2"/>
</svg>
