<svg width="24" height="24" viewBox="0 0 24 24" fill="none" xmlns="http://www.w3.org/2000/svg">
  <path d="M12 0C5.374 0 0 5.373 0 12 0 18.627 5.374 24 12 24 18.626 24 24 18.627 24 12 0 5.373-5.374 0-12 0ZM17.56 8.367c.01.162.01.326.01.49 0 4.99-3.797 10.742-10.74 10.742-2.133 0-4.116-.625-5.787-1.697.296.035.6.051.908.051 1.78 0 3.418-.607 4.717-1.625-1.665-.031-3.07-1.131-3.553-2.641.233.045.472.069.717.069.338 0 .668-.045.98-.13-1.74-.349-3.048-1.884-3.048-3.725v-.047c.512.284 1.098.456 1.717.476-1.02-.681-1.69-1.846-1.69-3.168 0-.697.188-1.352.515-1.916 1.875 2.305 4.674 3.82 7.832 3.975-.065-.284-.099-.579-.099-.883 0-2.14 1.735-3.874 3.874-3.874 1.114 0 2.122.471 2.83 1.225.883-.173 1.714-.495 2.463-.938-.289.904-.904 1.664-1.705 2.145.784-.093 1.532-.302 2.226-.61-.519.776-1.175 1.458-1.929 2.001z" fill="#1d9bf0"/>
</svg>
